<?xml version="1.0" encoding="UTF-8" standalone="no"?>
<svg
   enable-background="new 0 0 515.91 728.5"
   height="512"
   id="Layer_1"
   version="1.1"
   viewBox="0 0 512 512"
   width="511.99997"
   xml:space="preserve"
   sodipodi:docname="archlinux.svg"
   xmlns:inkscape="http://www.inkscape.org/namespaces/inkscape"
   xmlns:sodipodi="http://sodipodi.sourceforge.net/DTD/sodipodi-0.dtd"
   xmlns="http://www.w3.org/2000/svg"
   xmlns:svg="http://www.w3.org/2000/svg"><sodipodi:namedview
     id="namedview1"
     pagecolor="#ffffff"
     bordercolor="#000000"
     borderopacity="0.25"
     inkscape:showpageshadow="2"
     inkscape:pageopacity="0.0"
     inkscape:pagecheckerboard="0"
     inkscape:deskcolor="#d1d1d1"><inkscape:page
       x="0"
       y="0"
       width="512"
       height="512"
       id="page2"
       margin="0"
       bleed="0" /></sodipodi:namedview><defs
     id="defs7" /><g
     id="g3824"
     transform="translate(148.11806,138.35224)"
     style="fill:#ffffff"><path
       d="m 109.84949,-70.602257 c -15.355703,37.647953 -24.617503,62.274233 -41.714103,98.803113 10.4824,11.11125 23.349,24.05083 44.244113,38.66492 -22.464413,-9.24399 -37.787913,-18.5247 -49.239313,-28.15533 -21.8803,45.6566 -56.1603996,110.692384 -125.726009,235.687324 54.6762094,-31.56545 97.060109,-51.0259 136.559909,-58.45149 -1.696,-7.29506 -2.6605,-15.1861 -2.595,-23.41953 l 0.065,-1.7516 c 0.8677,-35.02952 19.09,-61.96722 40.676113,-60.13821 21.5861,1.82902 38.3647,31.72582 37.4971,66.75537 -0.1631,6.59145 -0.9065,12.93234 -2.2057,18.81346 39.0709,7.64297 81.0017,27.0536 134.93811,58.192 C 271.7144,254.81765 262.2216,237.1676 253.1563,220.3577 238.8771,209.29028 223.983,194.88599 193.602,179.29245 c 20.8822,5.42606 35.8334,11.68629 47.4876,18.68371 C 148.9204,26.372786 141.4566,3.570256 109.84949,-70.602257 Z"
       id="path2518"
       style="fill:#ffffff;fill-opacity:1;fill-rule:evenodd;stroke:none" /></g></svg>
